# Blender v2.83.1 OBJ File: ''
# www.blender.org
mtllib untitled.mtl
o Cube
v -1.000000 1.000000 1.000000
v -1.000000 -1.000000 1.000000
v -1.000000 1.000000 -1.000000
v -1.000000 -1.000000 -1.000000
v 1.000000 1.000000 1.000000
v 1.000000 -1.000000 1.000000
v 1.000000 1.000000 -1.000000
v 1.000000 -1.000000 -1.000000
vt 0.624944 0.313427
vt 0.969395 0.313427
vt 0.969395 0.680536
vt 0.624944 0.680536
vt 0.375056 0.680536
vt 0.624944 0.934477
vt 0.375056 0.934477
vt 0.037113 0.692531
vt 0.370712 0.692531
vt 0.370712 0.940355
vt 0.037113 0.940355
vt 0.033706 0.313427
vt 0.375056 0.313427
vt 0.033706 0.680536
vt 0.375056 0.053368
vt 0.624944 0.053368
vn 0.0000 1.0000 0.0000
vn 0.0000 0.0000 -1.0000
vn 1.0000 0.0000 0.0000
vn 0.0000 -1.0000 0.0000
vn -1.0000 0.0000 0.0000
vn 0.0000 0.0000 1.0000
g Cube_Cube_cube_texture
usemtl cube_texture
s off
f 1/1/1 5/2/1 7/3/1 3/4/1
f 4/5/2 3/4/2 7/6/2 8/7/2
f 8/8/3 7/9/3 5/10/3 6/11/3
f 6/12/4 2/13/4 4/5/4 8/14/4
f 2/13/5 1/1/5 3/4/5 4/5/5
f 6/15/6 5/16/6 1/1/6 2/13/6
